<?xml version="1.0" encoding="UTF-8" standalone="no"?>
<!-- Created with Inkscape (http://www.inkscape.org/) -->

<svg
   width="127.98503mm"
   height="191.87848mm"
   viewBox="0 0 127.98503 191.87848"
   version="1.1"
   id="svg1"
   sodipodi:docname="fingers.svg"
   inkscape:version="1.4.2 (f4327f4, 2025-05-13)"
   xmlns:inkscape="http://www.inkscape.org/namespaces/inkscape"
   xmlns:sodipodi="http://sodipodi.sourceforge.net/DTD/sodipodi-0.dtd"
   xmlns="http://www.w3.org/2000/svg"
   xmlns:svg="http://www.w3.org/2000/svg">
  <sodipodi:namedview
     id="namedview1"
     pagecolor="#ffffff"
     bordercolor="#000000"
     borderopacity="0.25"
     inkscape:showpageshadow="2"
     inkscape:pageopacity="0.0"
     inkscape:pagecheckerboard="0"
     inkscape:deskcolor="#d1d1d1"
     inkscape:document-units="mm"
     inkscape:zoom="1.5737102"
     inkscape:cx="81.971892"
     inkscape:cy="473.72129"
     inkscape:window-width="1920"
     inkscape:window-height="1009"
     inkscape:window-x="760"
     inkscape:window-y="172"
     inkscape:window-maximized="1"
     inkscape:current-layer="layer1" />
  <defs
     id="defs1">
    <inkscape:path-effect
       effect="bspline"
       id="path-effect24"
       is_visible="true"
       lpeversion="1.3"
       weight="33.333333"
       steps="2"
       helper_size="0"
       apply_no_weight="true"
       apply_with_weight="true"
       only_selected="false"
       uniform="false" />
    <inkscape:path-effect
       effect="bspline"
       id="path-effect8"
       is_visible="true"
       lpeversion="1.3"
       weight="33.333333"
       steps="2"
       helper_size="0"
       apply_no_weight="true"
       apply_with_weight="true"
       only_selected="false"
       uniform="false" />
    <inkscape:path-effect
       effect="bspline"
       id="path-effect12"
       is_visible="true"
       lpeversion="1.3"
       weight="33.333333"
       steps="2"
       helper_size="0"
       apply_no_weight="true"
       apply_with_weight="true"
       only_selected="false"
       uniform="false" />
    <inkscape:path-effect
       effect="bspline"
       id="path-effect13"
       is_visible="true"
       lpeversion="1.3"
       weight="33.333333"
       steps="2"
       helper_size="0"
       apply_no_weight="true"
       apply_with_weight="true"
       only_selected="false"
       uniform="false" />
  </defs>
  <g
     inkscape:label="Layer 1"
     inkscape:groupmode="layer"
     id="layer1"
     transform="translate(-124.20363,-24.341666)">
    <g
       id="g39"
       transform="matrix(0.56664284,0,0,0.56664284,178.59459,0.42305141)">
      <path
         id="path25"
         style="baseline-shift:baseline;display:inline;overflow:visible;opacity:1;vector-effect:none;fill:#a85460;fill-opacity:1;stroke-linejoin:round;enable-background:accumulate;stop-color:#000000;stop-opacity:1"
         d="m 69.569372,164.90714 c -2.395087,0 -4.561472,0.21074 -6.183602,0.57051 -0.811065,0.17989 -1.483247,0.39058 -2.019515,0.67179 -0.268134,0.1406 -0.507944,0.29695 -0.713135,0.51935 -0.20519,0.2224 -0.384993,0.55015 -0.384989,0.92397 0,0.0558 0.0044,0.11038 0.01189,0.16382 h -0.308509 v 2.78587 c -0.0349,0.0301 -0.06884,0.0615 -0.10232,0.0946 -0.221031,0.21833 -0.427884,0.55178 -0.42788,0.9493 -4e-6,0.39752 0.206849,0.73096 0.42788,0.94929 0.03348,0.0331 0.06742,0.0644 0.10232,0.0946 v 1.80816 c 1.91e-4,0.0307 0.002,0.0615 0.0057,0.092 0,0 0.01515,0.13462 0.03669,0.37259 -0.0498,0.0408 -0.192399,0.085 -0.144694,0.13074 0.722775,0.69243 0.93769,1.32186 0,1.89859 -0.102793,0.0632 0.17592,0.15936 0.271301,0.22686 0.0075,0.32654 0.01063,0.67016 0.0067,1.0232 -0.02181,1.96971 0.316901,4.44414 -0.31781,5.30509 -0.480728,0.65207 -2.501205,1.47043 -3.844726,1.74925 -1.343521,0.27883 -2.618445,0.47284 -2.618445,0.47284 -1.875414,0.0582 -3.284112,1.37862 -4.364592,3.25562 -1.105249,1.92004 0.136521,21.00694 0.03918,23.83663 -0.08131,2.36365 3.727747,12.67744 10.691739,14.02674 3.481997,0.67465 15.230072,0.9152 20.140058,-0.24708 4.909987,-1.16228 4.635531,-2.73523 6.892778,-5.22457 l 2.605276,-10.51017 1.135848,-14.87814 c 0.21155,-2.82345 0.195317,-5.679 -0.909932,-7.59904 -1.080479,-1.877 -2.671077,-3.19742 -4.546491,-3.25562 0,0 -1.175707,-0.0452 -2.519227,-0.32401 -1.343521,-0.27882 -2.785223,-0.86567 -3.26595,-1.51774 -0.634712,-0.86095 -0.973995,-3.12041 -0.995805,-5.09012 -0.0024,-0.21696 -0.0022,-0.43061 0,-0.63872 0.08154,-0.0342 0.160513,-0.069 0.236678,-0.10542 0.287126,-0.13721 0.540678,-0.28758 0.76171,-0.50592 0.221033,-0.21833 0.427886,-0.55177 0.427882,-0.94929 4e-6,-0.39752 -0.206849,-0.73097 -0.427882,-0.9493 -0.221032,-0.21833 -0.474584,-0.3687 -0.76171,-0.50591 l -0.07545,0.16071 c 7.96e-4,-0.007 0.0088,-0.15813 0.0088,-0.15813 0.0037,-0.0305 0.0055,-0.0613 0.0057,-0.092 v -1.36839 c 0.02048,-0.009 0.04087,-0.0188 0.06098,-0.0284 0.287126,-0.13721 0.540679,-0.28757 0.761711,-0.50591 0.221032,-0.21833 0.427885,-0.55177 0.427881,-0.94929 4e-6,-0.39752 -0.206849,-0.73097 -0.427881,-0.9493 -0.221033,-0.21833 -0.474585,-0.3687 -0.761711,-0.50591 l -0.06098,0.12971 v -1.70584 c 0.01293,-0.0133 0.02556,-0.0266 0.03824,-0.0403 0.205192,-0.22239 0.384982,-0.5481 0.384989,-0.92191 2e-6,-0.37382 -0.179799,-0.70157 -0.384989,-0.92397 -0.20519,-0.2224 -0.442417,-0.37875 -0.710551,-0.51935 -0.536268,-0.28121 -1.208451,-0.4919 -2.019515,-0.67179 -1.62213,-0.35977 -3.788515,-0.57051 -6.183602,-0.57051 z m 0,1.59938 c 2.299196,0 4.381648,0.21078 5.835819,0.5333 0.727086,0.16126 1.300757,0.35775 1.624707,0.52762 0.02044,0.0107 0.01683,0.0128 0.03514,0.0232 -0.01873,0.0107 0.07494,-0.0848 0.05581,-0.0987 -0.07591,-0.0554 -1.023651,-0.84264 -1.750737,-0.68138 -1.454171,0.32252 -3.454781,-0.87037 -5.753968,-0.87037 -2.299187,0 -4.32525,1.05258 -5.779422,0.73006 -0.727085,-0.16126 -1.400305,0.83446 -1.724259,0.66459 -0.02165,-0.0114 -0.02208,0.26682 -0.04134,0.25582 0.01885,-0.0108 0.01608,-0.0122 0.03721,-0.0232 0.32395,-0.16987 0.89607,-0.36636 1.623156,-0.52762 1.454172,-0.32252 3.538691,-0.5333 5.837887,-0.5333 z"
         sodipodi:nodetypes="ssssscccsssccccsscssscsssscccscssscsssscccccssssccccsssssscscsssscccssc" />
      <path
         id="path19"
         style="baseline-shift:baseline;display:inline;overflow:visible;opacity:1;vector-effect:none;fill:#1b2a43;fill-opacity:1;stroke-linejoin:round;enable-background:accumulate;stop-color:#000000;stop-opacity:1"
         d="m 69.569372,164.90714 c -2.395087,0 -4.561472,0.21074 -6.183602,0.57051 -0.811065,0.17989 -1.483247,0.39058 -2.019515,0.67179 -0.268134,0.1406 -0.507944,0.29695 -0.713135,0.51935 -0.20519,0.2224 -0.384993,0.55015 -0.384989,0.92397 0,0.0558 0.0044,0.11038 0.01188,0.16382 h -0.308508 v 2.78587 c -0.0349,0.0301 -0.06884,0.0615 -0.10232,0.0946 -0.221031,0.21833 -0.427884,0.55178 -0.42788,0.9493 -4e-6,0.39752 0.206849,0.73096 0.42788,0.94929 0.03348,0.0331 0.06742,0.0644 0.10232,0.0946 v 1.80816 c 1.91e-4,0.0307 0.002,0.0615 0.0057,0.092 0,0 0.01515,0.13462 0.03669,0.37259 -0.0498,0.0408 -0.09771,0.0843 -0.144694,0.13074 -0.221031,0.21833 -0.427884,0.55178 -0.42788,0.9493 -4e-6,0.39752 0.206849,0.73096 0.42788,0.94929 0.08586,0.0848 0.17592,0.15936 0.271302,0.22686 0.0075,0.32654 0.01063,0.67016 0.0067,1.0232 -0.02181,1.96971 -0.361094,4.22917 -0.995805,5.09012 -0.480728,0.65207 -1.92243,1.23892 -3.265951,1.51774 -1.343521,0.27883 -2.519226,0.32401 -2.519226,0.32401 -1.875414,0.0582 -3.466012,1.37862 -4.546492,3.25562 -1.10525,1.92004 -1.963382,4.49496 -1.751831,7.31841 l 2.116666,28.24996 c 0.211551,2.82345 0.646582,5.39838 1.751831,7.31842 1.10525,1.92004 2.744034,3.2582 4.675684,3.2582 h 13.59607 13.596069 c 1.931649,0 3.570435,-1.33816 4.675684,-3.2582 1.10525,-1.92004 1.540281,-4.49497 1.751831,-7.31842 l 0.936893,-12.50311 v -5.2e-4 c 0.05877,-0.37153 0.0863,-0.58188 0.0863,-0.58188 l -0.04238,-0.006 1.135848,-15.15877 c 0.211549,-2.82345 -0.646582,-5.39837 -1.751831,-7.31841 -1.08048,-1.877 -2.671078,-3.19742 -4.546492,-3.25562 0,0 -1.175706,-0.0452 -2.519226,-0.32401 -1.343521,-0.27882 -2.785223,-0.86567 -3.265951,-1.51774 -0.634711,-0.86095 -0.973995,-3.12041 -0.995805,-5.09012 -0.0024,-0.21696 -0.0022,-0.43061 0,-0.63872 0.08154,-0.0342 0.160514,-0.069 0.236678,-0.10542 0.287126,-0.13721 0.540679,-0.28758 0.761711,-0.50592 0.221032,-0.21833 0.427885,-0.55177 0.427881,-0.94929 4e-6,-0.39752 -0.206849,-0.73097 -0.427881,-0.9493 -0.221032,-0.21833 -0.474585,-0.3687 -0.761711,-0.50591 l -0.07545,0.16071 c 7.95e-4,-0.007 0.0088,-0.15813 0.0088,-0.15813 0.0037,-0.0305 0.0055,-0.0613 0.0057,-0.092 v -1.36839 c 0.02048,-0.009 0.04087,-0.0188 0.06098,-0.0284 0.287126,-0.13721 0.540679,-0.28757 0.761711,-0.50591 0.221032,-0.21833 0.427885,-0.55177 0.427881,-0.94929 4e-6,-0.39752 -0.206849,-0.73097 -0.427881,-0.9493 -0.221032,-0.21833 -0.474585,-0.3687 -0.761711,-0.50591 l -0.06098,0.12971 v -1.70584 c 0.01293,-0.0133 0.02556,-0.0266 0.03824,-0.0403 0.205192,-0.22239 0.384983,-0.5481 0.384989,-0.92191 3e-6,-0.37382 -0.179798,-0.70157 -0.384989,-0.92397 -0.20519,-0.2224 -0.442417,-0.37875 -0.710551,-0.51935 -0.536268,-0.28121 -1.208451,-0.4919 -2.019515,-0.67179 -1.62213,-0.35977 -3.788515,-0.57051 -6.183602,-0.57051 z m 0,1.59938 c 2.299196,0 4.381648,0.21078 5.835819,0.5333 0.727086,0.16126 1.300757,0.35775 1.624707,0.52762 0.02044,0.0107 0.01683,0.0128 0.03514,0.0232 -0.01873,0.0107 -0.01416,0.0143 -0.03514,0.0253 -0.323954,0.16987 -0.897621,0.36635 -1.624707,0.52761 -1.454171,0.32252 -3.536632,0.53279 -5.835819,0.53279 -2.299187,0 -4.383715,-0.21027 -5.837887,-0.53279 -0.727085,-0.16126 -1.299202,-0.35774 -1.623156,-0.52761 -0.02165,-0.0114 -0.01795,-0.0143 -0.03721,-0.0253 0.01885,-0.0108 0.01608,-0.0122 0.03721,-0.0232 0.32395,-0.16987 0.89607,-0.36636 1.623156,-0.52762 1.454172,-0.32252 3.538691,-0.5333 5.837887,-0.5333 z m -7.998478,2.62878 c 0.499516,0.23178 1.103956,0.41283 1.814876,0.57051 1.622128,0.35977 3.788524,0.57051 6.183602,0.57051 2.395078,0 4.561474,-0.21074 6.183602,-0.57051 0.397454,-0.0881 0.761334,-0.18381 1.09244,-0.29145 v 2.52284 c -0.252555,0.0691 -0.53509,0.13593 -0.841809,0.19792 -1.610321,0.3255 -3.903499,0.53692 -6.435267,0.53692 -2.531767,0 -4.827529,-0.21142 -6.43785,-0.53692 -0.645368,-0.13044 -1.181703,-0.28342 -1.559594,-0.42995 z m 0,4.26279 c 0.373419,0.11322 0.787859,0.21335 1.243335,0.30541 1.765231,0.35681 4.134951,0.56844 6.754109,0.56844 2.619158,0 4.988362,-0.21163 6.753593,-0.56844 0.18099,-0.0366 0.355574,-0.0747 0.523483,-0.1142 v 0.81028 c -0.02183,0.20055 -0.09894,0.95462 -0.144694,1.97249 -0.214211,0.0554 -0.447808,0.10929 -0.697115,0.15968 -1.610321,0.3255 -3.903499,0.53692 -6.435267,0.53692 -2.531767,0 -4.827529,-0.21142 -6.43785,-0.53692 -0.572321,-0.11568 -1.058837,-0.24892 -1.425236,-0.37982 -0.04625,-0.90552 -0.114132,-1.56656 -0.134358,-1.75235 z m 0.179317,4.44883 c 0.325485,0.092 0.680302,0.17565 1.064018,0.25321 1.765231,0.35681 4.134951,0.56844 6.754109,0.56844 2.619158,0 4.988362,-0.21163 6.753593,-0.56844 0.117481,-0.0238 0.2322,-0.0479 0.344165,-0.0729 2.96e-4,0.0573 9.1e-4,0.11474 0.0016,0.1726 0.02308,2.08448 0.171395,4.47952 1.308447,6.02185 0.978294,1.327 2.737154,1.82521 4.228682,2.13475 1.288898,0.26749 2.429852,0.33929 2.716114,0.35399 v 0.003 c 1.185763,0 2.360258,0.84139 3.289205,2.45515 0.928947,1.61376 1.72994,3.94251 1.536857,6.51949 l -1.163237,15.52774 v 5.2e-4 5.1e-4 h -5.17e-4 v 5.2e-4 5.2e-4 c -0.132706,0.83249 -0.425736,2.4876 -0.922424,4.39611 -0.714925,2.74709 -1.880122,6.00356 -3.450952,7.93543 -1.481907,1.82251 -4.493692,2.75596 -8.09563,3.12901 -2.161894,0.2239 -4.510508,0.2574 -6.814054,0.23513 -2.303546,0.0223 -4.652161,-0.0112 -6.814055,-0.23513 -3.601937,-0.37305 -6.613723,-1.3065 -8.09563,-3.12901 -1.57083,-1.93187 -2.736027,-5.18834 -3.450952,-7.93543 -0.714925,-2.74708 -1.008207,-4.96869 -1.008207,-4.96869 l -0.140043,0.0181 -1.121896,-14.97532 c -0.193083,-2.57698 0.60791,-4.90573 1.536857,-6.51949 0.928947,-1.61376 2.103442,-2.45515 3.289205,-2.45515 v -0.003 c 0.286262,-0.0147 1.427216,-0.0865 2.716114,-0.35399 1.491527,-0.30954 3.250387,-0.80775 4.228682,-2.13475 1.137052,-1.54233 1.28537,-3.93737 1.308448,-6.02185 0.0013,-0.11873 0.0016,-0.23654 0.0016,-0.35295 z M 50.451159,219.4697 c 0.677312,1.85632 1.553542,3.67926 2.69906,5.08806 1.956124,2.40572 5.399666,3.32196 9.169983,3.71244 2.256608,0.23366 4.657173,0.26846 6.979936,0.24546 2.322763,0.023 4.723327,-0.0118 6.979935,-0.24546 3.770317,-0.39048 7.213859,-1.30672 9.169983,-3.71244 1.020223,-1.25471 1.826893,-2.83815 2.469617,-4.48086 l -0.289388,3.86126 c -0.193084,2.57698 -0.607911,4.90626 -1.536857,6.52002 -0.928947,1.61377 -2.103442,2.45669 -3.289205,2.45669 H 69.208154 55.612084 c -1.185763,0 -2.360258,-0.84292 -3.289205,-2.45669 -0.928947,-1.61376 -1.343774,-3.94304 -1.536857,-6.52002 z" />
      <path
         style="opacity:1;fill:none;fill-opacity:1;stroke:#1b2a43;stroke-width:1.6;stroke-linecap:round;stroke-linejoin:round;stroke-dasharray:none;stroke-opacity:1;paint-order:normal"
         d="m 72.666889,190.8536 c 0,0 2.919174,-0.059 5.71408,0.25858 2.794906,0.31779 5.663981,1.2769 5.960659,3.84222 0.593355,5.13064 -1.686719,24.73854 -1.686719,24.73854"
         id="path30"
         sodipodi:nodetypes="cssc" />
      <rect
         style="opacity:1;fill:#d98690;fill-opacity:1;stroke:none;stroke-width:1.6;stroke-linecap:round;stroke-linejoin:round;stroke-dasharray:none;stroke-opacity:1;paint-order:normal"
         id="rect30"
         width="4.583672"
         height="28.718111"
         x="45.486961"
         y="193.93568"
         ry="4.0445867"
         rx="4.0445867"
         transform="rotate(-2.3878426)" />
    </g>
    <g
       id="g32"
       transform="matrix(-0.59646828,0,0,0.59646828,15.39348,41.370409)">
      <path
         id="path32"
         style="baseline-shift:baseline;display:inline;overflow:visible;opacity:1;vector-effect:none;fill:#ffb981;fill-opacity:1;stroke-linecap:round;stroke-linejoin:round;enable-background:accumulate;stop-color:#000000;stop-opacity:1"
         d="m -224.29327,89.515376 c -0.23507,0.0012 -0.47694,0.0171 -0.72502,0.04857 -1.98463,0.25179 -4.33302,1.43705 -7.20111,4.00596 -5.73616,5.13781 -13.57783,15.826884 -19.34145,23.613034 -5.76362,7.78615 -9.42524,12.67353 -12.96872,17.88315 -3.54348,5.20962 -6.95229,10.70721 -10.0552,14.53503 -1.54348,1.90407 -3.02016,3.41105 -4.47156,4.72529 0.28222,-0.44961 0.56041,-0.91195 0.83302,-1.39113 1.28149,-2.25257 2.41501,-4.81305 4.32635,-8.91212 1.91134,-4.09908 4.58734,-9.71619 9.09195,-16.74833 2.25229,-3.51607 4.97575,-7.40511 7.29103,-11.04119 2.31528,-3.63607 4.23263,-6.98368 4.86482,-9.63042 0.63219,-2.64673 -0.19308,-4.58513 -1.56425,-5.70507 -1.37116,-1.119954 -3.15562,-1.510274 -4.54907,-1.635054 -1.39346,-0.12479 -2.60785,0.07392 -3.83956,0.898664 -1.23171,0.82474 -2.5123,2.19653 -4.45141,4.45295 -3.87823,4.51284 -10.41477,12.67601 -16.93747,23.05286 -6.52269,10.37684 -13.006,22.92271 -19.0469,34.55241 -6.04089,11.62971 -11.64697,22.35849 -15.28485,30.15062 -3.63789,7.79213 -5.29621,12.63013 -7.04298,17.19533 -1.74678,4.56521 -3.59293,8.88425 -6.00015,12.74806 -2.40721,3.86382 -5.40172,7.31598 -8.47442,10.27327 -3.07216,2.95675 -6.22712,5.42705 -15.65848,11.14454 -9.43185,5.7178 -25.28004,14.77568 -41.12669,23.83214 -0.35185,0.20045 -0.4743,0.64837 -0.27336,0.99994 38.26002,22.84762 55.49471,23.81698 55.67921,24.17782 0.18355,0.36011 0.62409,0.50349 0.98443,0.3204 21.66916,-11.02188 43.33821,-22.04354 59.23825,-30.08602 15.90005,-8.04247 26.4075,-13.29644 34.34777,-17.26975 7.94026,-3.97332 13.42129,-6.71198 17.74982,-10.0645 4.32853,-3.35252 7.40524,-7.24571 10.49807,-10.70116 3.09285,-3.45546 6.28972,-6.58187 9.74617,-10.83551 3.45645,-4.25365 7.13529,-9.58997 9.787,-13.60175 2.65173,-4.01176 4.25582,-6.66577 6.51795,-9.42785 2.26213,-2.76208 5.29445,-5.70615 6.70502,-8.94106 0.70528,-1.61744 1.01178,-3.30673 0.53898,-4.77542 -0.4728,-1.46869 -1.8264,-2.58309 -3.8964,-2.84014 -4.14001,-0.5141 -11.30378,1.75066 -17.37878,6.41202 -6.075,4.66136 -10.82485,11.664 -14.18363,15.92616 -3.35877,4.26217 -5.33485,5.85485 -7.39283,7.52305 -1.34165,1.08755 -2.68295,2.17597 -4.02456,3.26388 0.45998,-1.01075 0.92005,-2.04762 1.38027,-3.11712 2.21244,-5.14147 4.4041,-10.97493 7.88273,-17.38498 3.47865,-6.41006 8.28225,-13.46054 13.08602,-21.13876 4.80377,-7.67821 9.58723,-15.95779 13.91388,-23.59133 4.32664,-7.63353 8.19955,-14.62269 10.34975,-19.42414 2.1502,-4.80145 2.55922,-7.43121 2.93729,-9.92962 0.0412,-0.27147 -0.0729,-0.54317 -0.29559,-0.70384 -0.92245,-1.87664 -1.85738,-3.76832 -3.1166,-5.06584 -0.66008,-0.68015 -1.4336,-1.20691 -2.34921,-1.39061 -0.91562,-0.18371 -1.92657,0.002 -2.959,0.56637 -2.06484,1.12966 -4.32941,3.67071 -6.88485,6.99234 -2.55544,3.32162 -5.34996,7.42482 -8.215,11.63857 -5.73007,8.4275 -11.7509,17.31326 -17.90433,25.42584 -3.62478,4.77885 -7.3009,9.29774 -11.00088,13.71182 2.27592,-3.4065 4.53497,-6.83908 6.75876,-10.32288 4.39594,-6.88673 8.647,-13.9617 12.38064,-20.15846 3.73364,-6.19676 6.95084,-11.51822 11.07219,-18.156 2.06068,-3.31889 4.35465,-6.977 6.1681,-10.37508 1.81345,-3.39807 3.1726,-6.494434 3.27525,-8.933824 0.10265,-2.43939 -1.26557,-4.05791 -2.94142,-4.87877 -1.67585,-0.82086 -3.64915,-1.0087 -5.15576,-1.03301 -1.50661,-0.0243 -2.79137,0.1829 -4.13308,1.20664 -1.34171,1.02374 -2.77623,2.76663 -5.06636,5.86321 -4.58028,6.193154 -12.55684,17.865794 -19.26549,27.484634 -6.70864,9.61884 -12.14574,17.17823 -16.63309,22.83788 -2.19366,2.76675 -4.16279,5.08315 -6.01979,7.17165 1.6587,-2.50647 3.30252,-5.03287 4.91443,-7.59746 3.13389,-4.98609 6.13672,-10.10082 9.35188,-15.36341 3.21516,-5.26259 6.64258,-10.67158 10.45311,-15.9489 3.81052,-5.27731 8.04304,-10.44007 10.03867,-14.77945 1.99563,-4.339384 1.65549,-7.918744 -0.447,-10.091904 -0.91984,-0.95075 -2.24112,-1.65083 -3.88659,-1.64227 z"
         sodipodi:nodetypes="ccsssscssssscssssssssssccccssssssssssssscsssssccsscssscsssssssscsscssssscc" />
      <path
         style="opacity:1;fill:#a65460;fill-opacity:1;stroke:none;stroke-width:1.465;stroke-linecap:round;stroke-linejoin:round;stroke-opacity:1"
         d="m -195.67947,193.2141 6.14629,-6.48034 3.175,-5.68854 0.46302,-2.64584 -1.80668,-2.99399 -4.01415,5.63983 z"
         id="path31"
         sodipodi:nodetypes="ccccccc" />
      <path
         id="path2"
         style="baseline-shift:baseline;display:inline;overflow:visible;opacity:1;vector-effect:none;fill:#1a2c41;fill-opacity:1;stroke-linecap:round;stroke-linejoin:round;enable-background:accumulate;stop-color:#000000;stop-opacity:1"
         d="m -224.29327,89.515376 c -0.23507,0.0012 -0.47694,0.0171 -0.72502,0.04857 -1.98463,0.25179 -4.33302,1.43705 -7.20111,4.00596 -5.73616,5.13781 -13.57783,15.826884 -19.34145,23.613034 -5.76362,7.78615 -9.42524,12.67353 -12.96872,17.88315 -3.54348,5.20962 -6.95229,10.70721 -10.0552,14.53503 -1.54348,1.90407 -3.02016,3.41105 -4.47156,4.72529 0.28222,-0.44961 0.56041,-0.91195 0.83302,-1.39113 1.28149,-2.25257 2.41501,-4.81305 4.32635,-8.91212 1.91134,-4.09908 4.58734,-9.71619 9.09195,-16.74833 2.25229,-3.51607 4.97575,-7.40511 7.29103,-11.04119 2.31528,-3.63607 4.23263,-6.98368 4.86482,-9.63042 0.63219,-2.64673 -0.19308,-4.58513 -1.56425,-5.70507 -1.37116,-1.119954 -3.15562,-1.510274 -4.54907,-1.635054 -1.39346,-0.12479 -2.60785,0.07392 -3.83956,0.898664 -1.23171,0.82474 -2.5123,2.19653 -4.45141,4.45295 -3.87823,4.51284 -10.41477,12.67601 -16.93747,23.05286 -6.52269,10.37684 -13.006,22.92271 -19.0469,34.55241 -6.04089,11.62971 -11.64697,22.35849 -15.28485,30.15062 -3.63789,7.79213 -5.29621,12.63013 -7.04298,17.19533 -1.74678,4.56521 -3.59293,8.88425 -6.00015,12.74806 -2.40721,3.86382 -5.40172,7.31598 -8.47442,10.27327 -3.07216,2.95675 -6.22712,5.42705 -15.65848,11.14454 -9.43185,5.7178 -25.28004,14.77568 -41.12669,23.83214 a 0.73250002,0.73250002 0 0 0 -0.27336,0.99994 0.73250002,0.73250002 0 0 0 0.99994,0.27182 c 15.84665,-9.05646 31.69235,-18.11242 41.15976,-23.85178 9.46792,-5.73965 12.77329,-8.31896 15.91427,-11.34194 3.14041,-3.02246 6.21508,-6.56047 8.70335,-10.55439 2.48828,-3.99391 4.36511,-8.39954 6.12469,-12.99818 1.75957,-4.59864 3.39035,-9.36347 7.00215,-17.09973 3.6118,-7.73625 9.21608,-18.46211 15.25799,-30.09377 6.0419,-11.63164 12.51374,-24.15256 18.98592,-34.44906 6.4722,-10.29649 12.96945,-18.41113 16.80879,-22.87871 1.91966,-2.23379 3.1682,-3.52964 4.15427,-4.18992 0.98608,-0.66027 1.67842,-0.76537 2.89646,-0.65629 1.21804,0.10908 2.7512,0.49383 3.75171,1.31103 1.00051,0.8172 1.60169,1.97932 1.06454,4.22817 -0.53715,2.24884 -2.38589,5.58943 -4.67569,9.18548 -2.2898,3.59606 -5.01007,7.48271 -7.28689,11.03705 -4.55363,7.10868 -7.27139,12.81102 -9.18755,16.92042 -1.91615,4.10941 -3.04299,6.64659 -4.27158,8.80618 -1.17246,2.0609 -2.4634,3.82794 -3.77806,5.60431 -0.0487,0.0382 -0.097,0.0765 -0.14573,0.11472 a 0.73250002,0.73250002 0 0 0 -0.12506,1.02733 0.73250002,0.73250002 0 0 0 0.63097,0.2775 0.73250002,0.73250002 0 0 0 0.62684,-0.29301 c 0.0229,-0.0309 0.0458,-0.0621 0.0687,-0.093 2.80538,-2.20389 5.67683,-4.508 8.77104,-8.32508 3.20354,-3.95196 6.60999,-9.4589 10.1291,-14.6327 3.51912,-5.1738 7.16991,-10.04713 12.93564,-17.83612 5.76573,-7.789 13.66871,-18.489564 19.1425,-23.392374 2.7369,-2.45141 4.85926,-3.44827 6.40788,-3.64474 1.54862,-0.19648 2.5694,0.32908 3.37344,1.16014 1.60808,1.66213 2.01551,4.44358 0.16795,8.460984 -1.84756,4.0174 -6.04995,9.20855 -9.89449,14.53297 -3.84455,5.32443 -7.29182,10.76618 -10.51564,16.04294 -3.22382,5.27676 -6.22412,10.38718 -9.34206,15.3479 -3.11795,4.96071 -6.36426,9.78821 -9.61492,14.62133 a 0.73250002,0.73250002 0 0 0 0.19895,1.01751 0.73250002,0.73250002 0 0 0 0.77928,0.0227 0.73250002,0.73250002 0 0 0 0.44339,-0.22427 c 3.57027,-3.79634 7.16358,-7.6162 11.68766,-13.32219 4.52408,-5.70597 9.97032,-13.28232 16.68528,-22.91023 6.71498,-9.62791 14.70177,-21.31171 19.24224,-27.451044 2.27023,-3.06966 3.68508,-4.73667 4.77749,-5.5702 1.09242,-0.83352 1.82716,-0.92887 3.22047,-0.9064 1.39331,0.0225 3.20106,0.23125 4.53512,0.8847 1.33407,0.65344 2.20395,1.58563 2.12339,3.50004 -0.0806,1.9144 -1.32847,4.974624 -3.10576,8.304924 -1.77729,3.33031 -4.05798,6.97219 -6.12107,10.29498 -4.12619,6.64556 -7.34768,11.9736 -11.08201,18.1715 -3.73433,6.1979 -7.97995,13.26272 -12.36152,20.12694 -4.38158,6.86422 -8.90625,13.53829 -13.43535,20.21892 a 0.73250002,0.73250002 0 0 0 0.14314,0.97668 0.73250002,0.73250002 0 0 0 0.0816,0.0837 0.73250002,0.73250002 0 0 0 1.03094,-0.0801 c 6.31424,-7.37441 12.63961,-14.75957 18.82624,-22.91591 6.18662,-8.15634 12.21812,-17.06023 17.94723,-25.4863 2.86455,-4.21304 5.65195,-8.30199 8.16642,-11.57036 2.51448,-3.26838 4.80699,-5.71415 6.42545,-6.59959 0.80923,-0.44273 1.42359,-0.52292 1.96681,-0.41393 0.54321,0.10898 1.0627,0.43126 1.58801,0.97255 1.03999,1.07162 2.00003,2.96159 2.95693,4.90513 -0.36054,2.36686 -0.77387,4.7259 -2.76727,9.17721 -2.09828,4.68551 -5.96698,11.67268 -10.2893,19.29857 -4.32231,7.6259 -9.09627,15.8896 -13.8808,23.53706 -4.78453,7.64746 -9.59975,14.70602 -13.13305,21.21679 -3.53329,6.51076 -5.74711,12.41001 -7.93905,17.50385 -2.19194,5.09385 -4.38604,9.44742 -6.58823,13.81672 a 0.73250002,0.73250002 0 0 0 0.32608,0.98444 0.73250002,0.73250002 0 0 0 0.98288,-0.32453 c 1.28325,-2.54604 2.56903,-5.09759 3.85662,-7.80107 a 0.73250002,0.73250002 0 0 0 0.16071,-0.0992 c 2.05798,-1.66822 4.11581,-3.33562 6.17378,-5.00383 2.05798,-1.6682 4.19805,-3.41221 7.62124,-7.75612 3.4232,-4.34392 8.12077,-11.21724 13.9237,-15.66984 5.80293,-4.4526 12.94648,-6.53831 16.3065,-6.12107 1.68001,0.20862 2.3754,0.87883 2.68356,1.83606 0.30815,0.95723 0.12673,2.3345 -0.48628,3.74034 -1.22602,2.81167 -4.1577,5.74471 -6.49573,8.59947 -2.33803,2.85475 -3.97041,5.55654 -6.60786,9.54671 -2.63744,3.99018 -6.30183,9.30372 -9.7007,13.48651 -3.39887,4.18278 -6.56699,7.27956 -9.70122,10.78126 -3.13423,3.50169 -6.14547,7.29986 -10.3048,10.52132 -4.15933,3.22148 -9.56811,5.93894 -17.50797,9.91206 -7.93986,3.97311 -18.45073,9.22798 -34.35346,17.27181 -15.90272,8.04383 -37.57115,19.06569 -59.24031,30.08757 a 0.73250002,0.73250002 0 0 0 -0.32039,0.9865 0.73250002,0.73250002 0 0 0 0.98443,0.3204 c 21.66916,-11.02188 43.33821,-22.04354 59.23825,-30.08602 15.90005,-8.04247 26.4075,-13.29644 34.34777,-17.26975 7.94026,-3.97332 13.42129,-6.71198 17.74982,-10.0645 4.32853,-3.35252 7.40524,-7.24571 10.49807,-10.70116 3.09285,-3.45546 6.28972,-6.58187 9.74617,-10.83551 3.45645,-4.25365 7.13529,-9.58997 9.787,-13.60175 2.65173,-4.01176 4.25582,-6.66577 6.51795,-9.42785 2.26213,-2.76208 5.29445,-5.70615 6.70502,-8.94106 0.70528,-1.61744 1.01178,-3.30673 0.53898,-4.77542 -0.4728,-1.46869 -1.8264,-2.58309 -3.8964,-2.84014 -4.14001,-0.5141 -11.30378,1.75066 -17.37878,6.41202 -6.075,4.66136 -10.82485,11.664 -14.18363,15.92616 -3.35877,4.26217 -5.33485,5.85485 -7.39283,7.52305 -1.34165,1.08755 -2.68295,2.17597 -4.02456,3.26388 0.45998,-1.01075 0.92005,-2.04762 1.38027,-3.11712 2.21244,-5.14147 4.4041,-10.97493 7.88273,-17.38498 3.47865,-6.41006 8.28225,-13.46054 13.08602,-21.13876 4.80377,-7.67821 9.58723,-15.95779 13.91388,-23.59133 4.32664,-7.63353 8.19955,-14.62269 10.34975,-19.42414 2.1502,-4.80145 2.55922,-7.43121 2.93729,-9.92962 a 0.73250002,0.73250002 0 0 0 -0.29559,-0.70384 c -0.92245,-1.87664 -1.85738,-3.76832 -3.1166,-5.06584 -0.66008,-0.68015 -1.4336,-1.20691 -2.34921,-1.39061 -0.91562,-0.18371 -1.92657,0.002 -2.959,0.56637 -2.06484,1.12966 -4.32941,3.67071 -6.88485,6.99234 -2.55544,3.32162 -5.34996,7.42482 -8.215,11.63857 -5.73007,8.4275 -11.7509,17.31326 -17.90433,25.42584 -3.62478,4.77885 -7.3009,9.29774 -11.00088,13.71182 2.27592,-3.4065 4.53497,-6.83908 6.75876,-10.32288 4.39594,-6.88673 8.647,-13.9617 12.38064,-20.15846 3.73364,-6.19676 6.95084,-11.51822 11.07219,-18.156 2.06068,-3.31889 4.35465,-6.977 6.1681,-10.37508 1.81345,-3.39807 3.1726,-6.494434 3.27525,-8.933824 0.10265,-2.43939 -1.26557,-4.05791 -2.94142,-4.87877 -1.67585,-0.82086 -3.64915,-1.0087 -5.15576,-1.03301 -1.50661,-0.0243 -2.79137,0.1829 -4.13308,1.20664 -1.34171,1.02374 -2.77623,2.76663 -5.06636,5.86321 -4.58028,6.193154 -12.55684,17.865794 -19.26549,27.484634 -6.70864,9.61884 -12.14574,17.17823 -16.63309,22.83788 -2.19366,2.76675 -4.16279,5.08315 -6.01979,7.17165 1.6587,-2.50647 3.30252,-5.03287 4.91443,-7.59746 3.13389,-4.98609 6.13672,-10.10082 9.35188,-15.36341 3.21516,-5.26259 6.64258,-10.67158 10.45311,-15.9489 3.81052,-5.27731 8.04304,-10.44007 10.03867,-14.77945 1.99563,-4.339384 1.65549,-7.918744 -0.447,-10.091904 -0.91984,-0.95075 -2.24112,-1.65083 -3.88659,-1.64227 z" />
      <path
         style="opacity:1;fill:#a65460;fill-opacity:1;stroke:#1a2b41;stroke-width:1.465;stroke-linecap:round;stroke-linejoin:round;stroke-opacity:1"
         d="m -161.78229,152.28433 c -1.73057,2.43215 -2.75955,4.34978 -2.68159,5.72958 0.0779,1.37979 1.26284,2.22168 2.47112,2.59586 1.20828,0.37418 2.43992,0.28063 3.60145,-0.5301 1.16153,-0.81073 2.25286,-2.33859 3.54689,-4.31861 1.29403,-1.98002 2.79074,-4.41217 2.76735,-6.45455 -0.0234,-2.04239 -1.56687,-3.69501 -3.55468,-3.048 -1.98782,0.64702 -4.41997,3.59366 -6.15054,6.02582 z"
         id="path23"
         inkscape:path-effect="#path-effect24"
         inkscape:original-d="m -162.48387,152.79882 c -1.02899,1.91766 -2.05797,3.83529 -3.08697,5.75297 1.18491,0.84191 2.3698,1.6838 3.5547,2.52571 1.23166,-0.0935 2.4633,-0.1871 3.69499,-0.28065 1.09137,-1.52791 2.1827,-3.05577 3.27405,-4.58366 1.49671,-2.43215 2.99342,-4.8643 4.49013,-7.29645 -1.54348,-1.65262 -3.08697,-3.30524 -4.63045,-4.95786 -2.43215,2.94665 -4.8643,5.89329 -7.29645,8.83994 z"
         sodipodi:nodetypes="cccccczc"
         transform="translate(-101.02788,-48.643054)" />
      <path
         style="opacity:1;fill:#a65460;fill-opacity:1;stroke:#1a2b41;stroke-width:1.465;stroke-linecap:round;stroke-linejoin:round;stroke-opacity:1"
         d="m -231.70668,96.251276 c 0,0 -3.78633,5.485594 -0.0234,7.647244 3.76295,2.16165 7.15828,-0.52059 8.48971,-2.34123 2.77565,-3.795534 4.42,-8.241534 3.78797,-11.292844 -0.63203,-3.05131 -4.13602,-2.63734 -5.94006,-1.3564 -1.80404,1.28094 -6.31422,7.34323 -6.31422,7.34323 z"
         id="path24"
         sodipodi:nodetypes="czszzc" />
      <path
         style="opacity:1;fill:#a65460;fill-opacity:1;stroke:#1a2b41;stroke-width:1.465;stroke-linecap:round;stroke-linejoin:round;stroke-opacity:1"
         d="m -198.63876,86.943616 c 4.0611,2.14087 1.6186,6.90989 0.1637,10.17294 -2.13519,4.030644 -4.57067,9.134894 -9.93908,6.735194 -3.49888,-2.21428 -0.85452,-6.983514 0.77174,-9.845544 2.12489,-3.03812 4.95548,-8.64904 9.00364,-7.06259 z"
         id="path26"
         sodipodi:nodetypes="zzzzz" />
      <path
         style="opacity:1;fill:#a65460;fill-opacity:1;stroke:#1a2b41;stroke-width:1.465;stroke-linecap:round;stroke-linejoin:round;stroke-opacity:1"
         d="m -196.48724,115.94236 c -0.42079,2.02909 -1.4758,4.43048 1.333,5.94006 2.8088,1.50958 4.76628,-0.17405 6.19732,-1.77734 2.1512,-2.41015 3.92886,-6.5481 3.92886,-6.5481 0,0 2.78897,-7.04573 -0.56127,-8.32545 -3.35023,-1.27973 -4.33479,-0.30519 -5.7062,1.14329 -1.37142,1.44847 -4.77092,7.53845 -5.19171,9.56754 z"
         id="path27"
         sodipodi:nodetypes="zzsczzz" />
      <path
         style="opacity:1;fill:#a65460;fill-opacity:1;stroke:#1a2b41;stroke-width:1.465;stroke-linecap:round;stroke-linejoin:round;stroke-opacity:1"
         d="m -195.66873,193.72447 c 0,0 -1.64879,0.0964 -4.01071,-1.44993 -4.48093,-3.14562 0.67739,-8.67332 2.88818,-11.31887 5.47644,-6.52068 8.98026,-5.33202 8.98026,-5.33202"
         id="path28"
         sodipodi:nodetypes="czzc" />
    </g>
    <g
       id="g38"
       transform="matrix(0.59646828,0,0,0.59646828,90.40624,3.483127)">
      <g
         id="g37">
        <path
           style="fill:#ffb77b;fill-opacity:1;stroke:none;stroke-width:1.6;stroke-linecap:round;stroke-linejoin:round;stroke-dasharray:none"
           d="m 100.86456,80.647214 11.1329,26.498136 13.61709,3.12826 4.96841,4.04832 6.1645,3.77231 3.03624,0.092 1.56413,0.18401 1.56412,-1.93215 0.18402,-3.22026 1.10409,-1.01209 1.93215,0.92008 2.30019,-0.18402 1.74814,-1.93215 0.46004,-2.20818 -1.56413,-3.49628 -3.31227,-2.94424 -2.76022,-2.30019 -4.04833,-3.404274 -4.87639,-6.440519 -2.76022,-3.404275 4.78438,-8.464685 -1.65613,-3.220259 -9.38476,-8.6487 -5.06041,3.036247 -14.16914,10.580854 -3.40428,1.932157 z"
           id="path15" />
        <path
           style="fill:none;stroke:#1a2c42;stroke-width:1.6;stroke-linecap:round;stroke-linejoin:round;stroke-dasharray:none;stroke-opacity:1"
           d="m 102.30144,84.099678 c 3.56686,7.957577 7.13372,15.915152 10.70058,23.872732"
           id="path8"
           inkscape:path-effect="#path-effect8"
           inkscape:original-d="m 102.30144,84.099678 c 3.56686,7.957577 7.13372,15.915152 10.70058,23.872732"
           sodipodi:nodetypes="cc" />
        <path
           id="path9"
           style="baseline-shift:baseline;display:inline;overflow:visible;vector-effect:none;fill:#1b2b43;fill-opacity:1;stroke-linecap:round;stroke-linejoin:round;enable-background:accumulate;stop-color:#000000"
           d="m 131.42971,73.42924 a 0.80000001,0.80000001 0 0 0 -0.48627,0.168466 c -1.35711,1.054251 -2.71941,2.11186 -4.08038,3.210656 -1.36096,1.098796 -2.71921,2.239412 -4.53512,3.830257 -1.70307,1.491982 -3.8069,3.378463 -5.934,5.2896 -0.29303,-0.350636 -0.6088,-0.609874 -0.96015,-0.88315 -0.81511,-0.633979 -2.10445,-1.675944 -3.39256,-2.718697 a 0.80000001,0.80000001 0 0 0 -1.125,0.116788 0.80000001,0.80000001 0 0 0 0.11679,1.124996 c 1.28811,1.042753 2.57738,2.086273 3.4184,2.740402 0.84102,0.654127 0.95179,0.585551 1.49396,2.226737 0.54218,1.641185 1.31532,4.843509 2.08205,8.033101 a 0.80000001,0.80000001 0 0 0 0.9648,0.589629 0.80000001,0.80000001 0 0 0 0.59169,-0.964799 c -0.76673,-3.189593 -1.52666,-6.36646 -2.11925,-8.160226 -0.0835,-0.252858 -0.16748,-0.480823 -0.2527,-0.68833 1.17801,-1.058593 2.35228,-2.113624 3.45819,-3.101103 l 3.85351,7.441923 a 0.80000001,0.80000001 0 0 0 1.07797,0.342098 0.80000001,0.80000001 0 0 0 0.34158,-1.078487 l -4.03903,-7.804175 c 0.51774,-0.459449 1.01282,-0.8967 1.47692,-1.303279 1.80305,-1.579577 3.14251,-2.702536 4.48809,-3.788916 1.34559,-1.086378 2.69949,-2.137286 4.0566,-3.191537 a 0.80000001,0.80000001 0 0 0 0.14056,-1.122929 0.80000001,0.80000001 0 0 0 -0.63665,-0.309025 z" />
        <path
           style="fill:none;stroke:#1b2b42;stroke-width:1.6;stroke-linecap:butt;stroke-linejoin:round;stroke-dasharray:none;stroke-opacity:1"
           d="m 136.42329,105.82546 c 3.29634,2.88429 6.59261,5.76853 7.22151,8.3872 0.62891,2.61867 -1.4096,4.9716 -4.52059,4.58224 -3.111,-0.38936 -7.29443,-3.52103 -11.47791,-6.65272"
           id="path12"
           inkscape:path-effect="#path-effect12"
           inkscape:original-d="m 136.42329,105.82546 c 3.29634,2.88429 6.59261,5.76853 9.88899,8.65286 -2.03857,2.35301 -4.07707,4.70594 -6.11561,7.0589 -4.18346,-3.13168 -8.36689,-6.26335 -12.55037,-9.39504"
           sodipodi:nodetypes="cccc" />
        <path
           style="fill:none;stroke:#1b2b42;stroke-width:1.6;stroke-linecap:round;stroke-linejoin:round;stroke-dasharray:none;stroke-opacity:1"
           d="m 143.90508,101.14121 c 1.61021,1.16022 3.22043,2.32044 4.50535,3.84933 1.28492,1.52889 2.24453,3.42643 2.11984,5.09629 -0.1247,1.66985 -1.33371,3.11199 -2.83549,3.38307 -1.50178,0.27108 -3.29632,-0.6289 -5.09087,-1.52888"
           id="path13"
           inkscape:path-effect="#path-effect13"
           inkscape:original-d="m 143.90508,101.14121 c 1.61021,1.16022 3.22043,2.32044 4.83064,3.48066 0.95963,1.89756 1.91924,3.7951 2.87887,5.69267 -1.20902,1.44214 -2.41803,2.88428 -3.62705,4.32642 -1.79454,-0.89998 -3.58908,-1.79996 -5.38363,-2.69994"
           sodipodi:nodetypes="ccccc" />
      </g>
      <g
         id="g36">
        <g
           id="g35">
          <g
             id="g33">
            <path
               id="rect18"
               style="fill:#192b42;fill-opacity:1;stroke-width:1.15941;stroke-linecap:round;stroke-linejoin:round"
               d="m 81.478681,143.59287 c -0.585811,-0.37317 -1.849543,-0.18093 -10.123882,10.27248 -0.579788,0.89586 0.0073,2.08337 1.287436,2.91187 l 0.492863,0.31897 0.492863,0.31898 c 1.280166,0.8285 2.603942,0.87766 3.183731,-0.0182 7.025365,-13.52008 5.57512,-13.19762 4.979545,-13.58307 -0.01322,-0.009 -0.03013,-0.0135 -0.0502,-0.0152 -0.01002,-0.0172 -0.0212,-0.031 -0.03444,-0.0396 -0.07445,-0.0482 -0.144265,-0.1129 -0.227944,-0.16622 z" />
            <rect
               style="fill:#ffffff;stroke:#1a2c42;stroke-width:1.41955;stroke-linecap:round;stroke-linejoin:round;stroke-dasharray:none;stroke-opacity:1;paint-order:normal"
               id="rect17"
               width="4.3899403"
               height="28.33729"
               x="144.55797"
               y="49.878529"
               transform="rotate(32.910332)" />
            <path
               id="rect16"
               style="fill:#1a2c42;fill-opacity:1;stroke-width:1.71007;stroke-linecap:round;stroke-linejoin:round"
               d="m 108.97995,93.355083 7.62228,4.933024 c 1.78379,1.154442 2.18821,3.457723 1.13601,5.303663 l -13.96561,24.50082 c -1.05219,1.84595 -3.51987,2.29045 -5.303662,1.13601 l -10.287762,-6.65808 c -1.783791,-1.15444 -2.389033,-3.58769 -1.136007,-5.30367 L 103.67629,94.49109 c 1.25301,-1.71598 3.51987,-2.29045 5.30366,-1.136007 z"
               sodipodi:nodetypes="sssssssss" />
          </g>
          <path
             id="path14"
             style="baseline-shift:baseline;display:inline;overflow:visible;vector-effect:none;fill:#ffb77b;fill-opacity:1;stroke-linecap:round;stroke-linejoin:round;enable-background:accumulate;stop-color:#000000"
             d="m 184.89622,34.972156 c -0.0697,0.0048 -0.13853,0.01868 -0.20464,0.04134 -5.43212,1.856546 -10.79575,3.688823 -18.4826,4.877222 -7.68684,1.188398 -17.74368,1.731709 -27.12909,1.925464 -9.38542,0.193757 -18.10081,0.01351 -23.66574,1.37511 -2.78246,0.680798 -4.77962,1.789115 -6.6151,3.455086 -1.83548,1.665971 -3.52678,3.857616 -5.88905,6.799068 -4.724531,5.882906 -12.207064,14.892363 -16.208825,19.974492 -2.00088,2.541064 -3.145768,4.110303 -3.886584,5.519559 -0.740815,1.409257 -1.043946,2.633276 -1.351856,4.306714 -0.615822,3.346876 -1.344986,8.848016 -1.892391,14.392403 -0.547405,5.544386 -0.909272,11.105656 -1.431437,15.322576 -0.522165,4.21692 -1.276469,7.11826 -0.873332,9.31416 0.403136,2.19591 2.139966,3.23269 3.55844,3.4277 1.418478,0.195 2.576716,-0.35395 3.471105,-0.84387 0.894386,-0.48993 1.564845,-1.55627 3.014287,-3.3967 1.449442,-1.84043 3.494346,-4.52637 5.002279,-8.24549 1.507933,-3.71913 2.751423,-7.86595 2.489253,-10.34407 -0.0033,-0.0308 -0.0066,-0.0611 -0.01033,-0.0915 0.313473,-0.0542 0.565065,-0.28892 0.640788,-0.59789 l 3.815787,-15.557193 c 0.05342,-0.02284 0.104187,-0.05143 0.151412,-0.08527 3.185994,-2.290007 6.376054,-4.582857 9.312094,-6.775297 2.93601,-2.192437 5.60106,-4.270191 8.29304,-6.137094 2.55891,-1.774621 5.16815,-3.377458 7.79021,-4.976957 l 10.40712,9.841777 c -0.40877,0.845995 -0.84943,1.682594 -1.33377,2.508374 -1.82364,3.109236 -4.24419,6.059049 -9.97251,10.607621 -5.72832,4.548571 -14.68724,11.490849 -19.6448,17.251749 -4.957558,5.76091 -5.316244,9.70942 -4.599203,12.78517 0.358523,1.53788 0.810893,2.59046 1.733223,3.17759 0.92235,0.58715 1.72163,0.53849 2.54972,0.68678 0.82808,0.14829 1.86449,1.01054 3.18741,0.632 1.32293,-0.37855 3.00664,-1.2172 5.61722,-2.9223 5.22115,-3.4102 14.1479,-10.31047 21.2013,-15.11123 7.05341,-4.80077 12.21693,-7.50242 17.85161,-9.791125 5.63467,-2.288711 11.82363,-4.17739 17.71056,-7.90236 5.88692,-3.724971 11.33699,-9.199484 16.7597,-14.632698 0.31153,-0.312768 0.31084,-0.818768 -0.002,-1.13068 -0.31297,-0.311735 -0.81937,-0.31081 -1.13121,0.0021 13.07473,-29.379969 6.14889,-31.535228 0.0805,-38.127387 0.41788,-0.142944 0.64087,-0.597481 0.49816,-1.015442 -0.10471,-0.30614 -0.38351,-0.519066 -0.70642,-0.539502 -0.0348,-0.0023 -0.0696,-0.0023 -0.10438,0 z"
             sodipodi:nodetypes="scssssssssssssssssccccssccssssssssssscccccccs" />
        </g>
        <path
           id="path1"
           style="baseline-shift:baseline;display:inline;overflow:visible;vector-effect:none;fill:#1b2b42;fill-opacity:1;stroke-linecap:round;stroke-linejoin:round;enable-background:accumulate;stop-color:#000000"
           d="m 184.89622,34.972156 a 0.80000001,0.80000001 0 0 0 -0.20464,0.04134 c -5.43212,1.856546 -10.79575,3.688823 -18.4826,4.877222 -7.68684,1.188398 -17.74368,1.731709 -27.12909,1.925464 -9.38542,0.193757 -18.10081,0.01351 -23.66574,1.37511 -2.78246,0.680798 -4.77962,1.789115 -6.6151,3.455086 -1.83548,1.665971 -3.52678,3.857616 -5.88905,6.799068 -4.724531,5.882906 -12.207064,14.892363 -16.208825,19.974492 -2.00088,2.541064 -3.145768,4.110303 -3.886584,5.519559 -0.740815,1.409257 -1.043946,2.633276 -1.351856,4.306714 -0.615822,3.346876 -1.344986,8.848016 -1.892391,14.392403 -0.547405,5.544386 -0.909272,11.105656 -1.431437,15.322576 -0.522165,4.21692 -1.276469,7.11826 -0.873332,9.31416 0.403136,2.19591 2.139966,3.23269 3.55844,3.4277 1.418478,0.195 2.576716,-0.35395 3.471105,-0.84387 0.894386,-0.48993 1.829428,-1.12632 3.27887,-2.96675 1.449442,-1.84043 3.527419,-4.95632 5.035352,-8.67544 1.507933,-3.71913 2.453767,-7.86595 2.191597,-10.34407 -0.0033,-0.0308 -0.0066,-0.0611 -0.01033,-0.0915 a 0.80000001,0.80000001 0 0 0 0.640788,-0.59789 l 3.815787,-15.557193 a 0.80000001,0.80000001 0 0 0 0.151412,-0.08527 c 3.185994,-2.290007 6.376054,-4.582857 9.312084,-6.775297 2.93602,-2.192437 5.60107,-4.270191 8.29305,-6.137094 2.55891,-1.774621 5.16815,-3.377458 7.79022,-4.976957 l 10.40711,9.841777 c -0.40877,0.845995 -0.84943,1.682594 -1.33376,2.508374 -1.82365,3.109236 -4.2442,6.059049 -9.97252,10.607621 -5.72832,4.548571 -14.78077,10.648949 -19.73833,16.409849 -4.957572,5.7609 -5.685735,11.08049 -4.968694,14.15624 0.35852,1.53788 1.141624,2.55737 2.063964,3.14451 0.92235,0.58715 1.92007,0.77 2.74815,0.91829 0.82808,0.14829 1.79833,0.28294 3.12126,-0.0956 1.32293,-0.37855 3.00665,-1.2172 5.61723,-2.9223 5.22115,-3.4102 14.14789,-10.31047 21.20129,-15.11123 7.05341,-4.80077 12.21693,-7.50242 17.85161,-9.791125 5.63467,-2.288711 11.82363,-4.17739 17.71056,-7.90236 5.88692,-3.724971 11.33699,-9.199484 16.7597,-14.632698 a 0.80000001,0.80000001 0 0 0 -0.002,-1.13068 0.80000001,0.80000001 0 0 0 -1.1312,0.0021 c -5.4227,5.433214 -10.8184,10.826183 -16.48221,14.409973 -5.66381,3.58379 -11.73103,5.445692 -17.45733,7.771618 -5.7263,2.325928 -11.02697,5.102972 -18.15031,9.951332 -4.58961,3.12383 -9.94215,7.10782 -14.53089,10.43606 -0.15682,-1.14121 -0.37346,-2.41488 -1.18184,-3.74293 -0.87295,-1.43413 -2.31109,-2.86607 -3.86333,-3.51968 -0.77611,-0.32681 -1.53862,-0.40787 -2.25568,-0.33796 -0.71707,0.0699 -1.38788,0.2924 -1.98075,0.5705 -1.18574,0.55621 -2.19066,1.35585 -3.09336,2.2009 -0.90271,0.84506 -1.7825,1.82514 -2.63498,3.38326 -0.85247,1.55813 -1.7387,3.66862 -1.68569,5.55057 0.0341,1.20997 0.49573,2.17464 1.06298,3.00033 -0.27548,-0.0947 -0.53292,-0.21031 -0.76429,-0.3576 -0.59644,-0.37968 -1.08357,-0.94344 -1.36684,-2.15853 -0.56654,-2.43018 -0.0638,-7.29949 4.62504,-12.74806 4.68878,-5.44856 13.6972,-11.578107 19.51922,-16.201076 5.82203,-4.622969 8.4423,-7.787193 10.35751,-11.052555 1.91522,-3.265364 3.1504,-6.631849 4.36924,-9.949264 a 0.80000001,0.80000001 0 0 0 -0.47646,-1.027327 0.80000001,0.80000001 0 0 0 -1.02578,0.47439 c -0.70042,1.906406 -1.39514,3.796098 -2.20606,5.64875 L 122.26955,64.06237 a 0.80000001,0.80000001 0 0 0 -0.57206,-0.218591 0.80000001,0.80000001 0 0 0 -0.55862,0.250114 0.80000001,0.80000001 0 0 0 0.031,1.13068 l 2.41949,2.288233 c -2.5022,1.527669 -5.01352,3.078956 -7.49773,4.801774 -2.74234,1.901829 -5.41816,3.989678 -8.33748,6.169649 -2.55347,1.906772 -5.30933,3.896239 -8.092009,5.897314 a 0.80000001,0.80000001 0 0 0 -0.562756,-0.508496 0.80000001,0.80000001 0 0 0 -0.96635,0.586011 l -4.046264,16.488402 c -0.207262,-0.26749 -0.449879,-0.48256 -0.717786,-0.64079 -0.748843,-0.442281 -1.543483,-0.484388 -2.218469,-0.546737 a 0.80000001,0.80000001 0 0 0 -0.869198,0.722437 0.80000001,0.80000001 0 0 0 0.722437,0.8692 c 0.67499,0.0623 1.230244,0.14449 1.55081,0.33383 0.320567,0.18933 0.557601,0.44215 0.654223,1.35547 0.193245,1.82661 -0.650088,6.04288 -2.082043,9.57461 -1.431955,3.53174 -3.446189,6.55442 -4.810559,8.28683 -1.364368,1.73241 -1.964446,2.10209 -2.791044,2.55488 -0.826594,0.45279 -1.572974,0.78488 -2.482019,0.65991 -0.265658,-0.0365 -0.540286,-0.10377 -0.803052,-0.21859 1.192549,-1.95046 2.401445,-4.01316 2.816365,-6.56859 0.440758,-2.71459 0.02867,-5.7066 -0.669726,-7.31635 -0.349198,-0.80487 -0.917084,-1.35637 -1.572514,-1.46296 -0.220195,-0.0358 -0.421048,-0.031 -0.605131,-0.004 0.306554,-3.34185 0.588198,-7.05623 0.952913,-10.750245 0.543892,-5.508809 1.273363,-10.999203 1.873271,-14.259594 0.299954,-1.630195 0.544578,-2.613619 1.195276,-3.851445 0.650698,-1.237826 1.741156,-2.754456 3.726387,-5.275647 3.970463,-5.042381 11.45948,-14.058456 16.201078,-19.962606 2.37081,-2.952076 4.03812,-5.095242 5.7149,-6.617167 1.67678,-1.521925 3.34651,-2.456437 5.92005,-3.086116 5.14707,-1.259359 13.89736,-1.13355 23.32054,-1.328085 9.42317,-0.194535 19.51759,-0.734282 27.33942,-1.94355 7.82184,-1.209269 13.32384,-3.088889 18.75596,-4.945435 a 0.80000001,0.80000001 0 0 0 0.49816,-1.015442 0.80000001,0.80000001 0 0 0 -0.70642,-0.539502 0.80000001,0.80000001 0 0 0 -0.10438,0 z M 80.548579,110.13036 c 0.0032,-10e-6 0.0062,1.9e-4 0.0083,5.2e-4 0.03702,0.006 0.125785,-0.0213 0.361219,0.52141 0.470868,1.08532 0.94033,4.08158 0.560689,6.41976 -0.337276,2.07724 -1.310749,3.85504 -2.408122,5.66943 -0.09947,-0.21781 -0.178282,-0.46787 -0.230993,-0.755 -0.279289,-1.5213 0.354701,-4.53358 0.886767,-8.83047 0.112547,-0.90891 0.217319,-1.87397 0.31781,-2.88302 0.272756,-0.1029 0.455825,-0.14245 0.504362,-0.14263 z m 31.152621,1.05523 c 0.36691,0.006 0.74365,0.083 1.1405,0.25012 1.05826,0.44561 2.42458,1.73907 3.11712,2.87682 0.69255,1.13775 0.83729,2.18562 0.99994,3.39463 a 0.80000001,0.80000001 0 0 0 0.23409,0.46664 c -2.01308,1.44935 -3.83728,2.7327 -5.32939,3.70726 -2.54573,1.66273 -4.12464,2.41928 -5.18366,2.72232 -0.60849,0.17411 -1.04284,0.21569 -1.45521,0.19223 a 0.80000001,0.80000001 0 0 0 -0.13074,-0.22324 c -0.91083,-1.09516 -1.64515,-1.99815 -1.68155,-3.2892 -0.0364,-1.29106 0.72126,-3.33344 1.48983,-4.73822 0.76858,-1.40477 1.48678,-2.1981 2.32441,-2.98224 0.83762,-0.78413 1.71531,-1.47033 2.67787,-1.92185 0.60161,-0.2822 1.18527,-0.46602 1.79679,-0.45527 z" />
      </g>
    </g>
  </g>
</svg>
