<?xml version="1.0" encoding="UTF-8" standalone="no"?>
<!-- Created with Inkscape (http://www.inkscape.org/) -->

<svg
   width="85.238mm"
   height="67.526mm"
   version="1.1"
   viewBox="0 0 85.238 67.526"
   xml:space="preserve"
   id="svg19"
   sodipodi:docname="logo.svg"
   inkscape:version="1.4.2 (f4327f4, 2025-05-13)"
   xmlns:inkscape="http://www.inkscape.org/namespaces/inkscape"
   xmlns:sodipodi="http://sodipodi.sourceforge.net/DTD/sodipodi-0.dtd"
   xmlns="http://www.w3.org/2000/svg"
   xmlns:svg="http://www.w3.org/2000/svg"><defs
     id="defs19" /><sodipodi:namedview
     id="namedview19"
     pagecolor="#ffffff"
     bordercolor="#000000"
     borderopacity="0.25"
     inkscape:showpageshadow="2"
     inkscape:pageopacity="0.0"
     inkscape:pagecheckerboard="0"
     inkscape:deskcolor="#d1d1d1"
     inkscape:document-units="mm"
     inkscape:zoom="3.1620227"
     inkscape:cx="160.97291"
     inkscape:cy="77.007669"
     inkscape:window-width="1920"
     inkscape:window-height="1009"
     inkscape:window-x="760"
     inkscape:window-y="172"
     inkscape:window-maximized="1"
     inkscape:current-layer="svg19" /><g
     transform="translate(-110.69 -68.457)"
     id="g19"><g
       fill="none"
       stroke="#000"
       stroke-linecap="round"
       stroke-linejoin="round"
       stroke-width="1.465"
       id="g18"><path
         d="m 139.94,74.434 c 0,0 -2.57967,4.265349 -9.626,6.6218 -8.1624,3.2747 -16.015,8.7326 -16.044,17.783 -0.0549,17.067 6.99497,16.64872 6.9466,25.52719 -0.0484,8.87848 -9.7988,10.88461 -9.7988,10.88461"
         id="path1"
         sodipodi:nodetypes="ccczc" /><path
         d="m149.97 69.19s0.83072 13.511 15.365 19.828c11.117 4.8314 12.421 11.179 12.421 11.179"
         id="path2" /><path
         d="m128.81 87.315s2.841-0.46111 7.9126 0c2.655 0.24139 4.6004 2.4842 4.6004 2.4842"
         id="path3" /><path
         d="m156.04 87.131s-1.6961 0.56225-2.6092 1.1361c-0.75705 0.4758-1.9912 1.6241-1.9912 1.6241"
         id="path4" /><path
         d="m122.19 98.264s0.75637 12.283 3.0132 17.504c1.137 2.6306 12.162 17.567 21.415 18.424 4.8817 0.45214 15.595-9.7068 15.595-9.7068"
         id="path5" /><path
         d="m126.42 96.884s2.478-1.8764 6.3025 1.1961c2.014 1.6179 8.6947-1.0121 8.6947-1.0121"
         id="path6" /><path
         d="m130.65 99.92s0.43633-0.78858 0.72768-1.1259c0.29136-0.33736 1.0205-0.89823 1.0205-0.89823"
         id="path7" /><path
         d="m168.19 96.7s-2.478-1.8764-6.3025 1.1961c-2.014 1.6179-8.6947-1.0121-8.6947-1.0121"
         id="path8" /><path
         d="m163.96 99.736s-0.43633-0.78858-0.72769-1.1259c-0.29135-0.33736-1.0204-0.89823-1.0204-0.89823"
         id="path9" /><path
         d="m143.15 108.91s1.5832 1.9426 3.8701 1.9552c2.2868 0.0125 3.8701-1.9552 3.8701-1.9552"
         id="path10" /><path
         d="m142.36 123.33s1.3982 1.4732 2.3096 1.4638c1.568-0.0161 3.3698-2e-3 5.0746 0 0.98584 1e-3 2.5698-1.4638 2.5698-1.4638"
         id="path11" /><path
         d="m153.26 119.72c-0.93393 0.69737-3.6037 1.1156-5.9575 1.1156s-4.3453-0.25729-5.9575-1.1386c-1.2601-0.68886 1.72-2.5112 2.9787-2.9902 0.96408-0.36689 1.9474 0.5495 2.9787 0.52904 0.85901-0.017 2.2992-1.0778 2.9787-0.55205 1.3603 1.0524 4.1827 2.1372 2.9787 3.0362z"
         id="path12" /><path
         d="m193.78 102.9s-16.855 3.0417-18.293 2.8819c-8.4941-0.94375-15.764-0.22042-15.825 0.13204-0.97527 5.6499 3.4123 15.541 4.8451 16.549 0.82345 0.57971 9.3566-4.1598 13.824-8.6257 1.0232-1.0228 16.86-6.8316 16.86-6.8316z"
         id="path13" /><path
         d="m177.96 113.92-2.3001-8.0739"
         id="path14" /><path
         d="m183.76 111.21-1.5181-6.2105"
         id="path15" /><path
         d="m166.53 118.46s3.7549-1.9148 5.5434-3.0247c1.7423-1.0812 5.0374-3.5308 5.0374-3.5308"
         id="path16" /><path
         d="m170.51 112.2s2.1085-0.64405 3.1283-1.0466 2.9902-1.3686 2.9902-1.3686"
         id="path17" /><path
         d="m163.64 108.66s1.6977-0.33768 3.9678-0.37953c1.9046-0.0351 8.5222 0.0345 8.5222 0.0345"
         id="path18" /></g></g></svg>
