<?xml version="1.0" encoding="UTF-8" standalone="no"?>
<!-- Created with Inkscape (http://www.inkscape.org/) -->

<svg
   width="139.25241mm"
   height="124.41152mm"
   viewBox="0 0 139.25241 124.41152"
   version="1.1"
   id="svg5"
   xml:space="preserve"
   inkscape:version="1.2.1 (9c6d41e410, 2022-07-14)"
   sodipodi:docname="Sarnia Media Transfers.svg"
   xmlns:inkscape="http://www.inkscape.org/namespaces/inkscape"
   xmlns:sodipodi="http://sodipodi.sourceforge.net/DTD/sodipodi-0.dtd"
   xmlns="http://www.w3.org/2000/svg"
   xmlns:svg="http://www.w3.org/2000/svg"><sodipodi:namedview
     id="namedview7"
     pagecolor="#ffffff"
     bordercolor="#666666"
     borderopacity="1.0"
     inkscape:showpageshadow="2"
     inkscape:pageopacity="0.0"
     inkscape:pagecheckerboard="0"
     inkscape:deskcolor="#d1d1d1"
     inkscape:document-units="mm"
     showgrid="false"
     inkscape:zoom="0.5946522"
     inkscape:cx="-142.09987"
     inkscape:cy="247.20332"
     inkscape:window-width="1920"
     inkscape:window-height="1027"
     inkscape:window-x="760"
     inkscape:window-y="213"
     inkscape:window-maximized="1"
     inkscape:current-layer="layer1" /><defs
     id="defs2"><inkscape:path-effect
       effect="envelope"
       id="path-effect3513"
       is_visible="true"
       lpeversion="1"
       yy="true"
       xx="true"
       bendpath1="m -157.17739,184.08148 h 38.53607"
       bendpath2="m -118.64132,184.08148 v 99.31854"
       bendpath3="m -157.17739,283.40002 h 38.53607"
       bendpath4="m -157.17739,184.08148 v 99.31854" /><inkscape:path-effect
       effect="bend_path"
       id="path-effect29641"
       is_visible="true"
       lpeversion="1"
       bendpath="m -158.56758,225.26713 h 41.52925"
       prop_scale="1"
       scale_y_rel="false"
       vertical="false"
       hide_knot="false" /></defs><g
     inkscape:label="Layer 1"
     inkscape:groupmode="layer"
     id="layer1"
     transform="translate(254.46905,-180.28267)"><g
       id="g25564"><circle
         style="fill:#1f6faf;fill-opacity:1;stroke:#040714;stroke-width:5.29167;stroke-linecap:round;stroke-linejoin:round;stroke-dasharray:none;stroke-opacity:1;stop-color:#000000"
         id="path354"
         cx="-200.99501"
         cy="249.54179"
         r="50.828201" /><rect
         style="opacity:1;fill:#dde3ec;fill-opacity:1;stroke:none;stroke-width:1.32292;stroke-linecap:round;stroke-linejoin:round;stroke-dasharray:none;stroke-opacity:1;stop-color:#000000"
         id="rect11543"
         width="37.596928"
         height="82.115463"
         x="-156.68008"
         y="190.81621"
         rx="1.0421815"
         ry="0.93402392" /><path
         style="fill:#9aa3b1;fill-opacity:1;stroke:none;stroke-width:0.264583px;stroke-linecap:butt;stroke-linejoin:miter;stroke-opacity:1"
         d="m -155.97219,203.40095 v -9.12394 l 19.97828,0.23597 0.31462,8.02277 c 0,0 15.18035,0.31462 15.65228,0.31462 0.47193,0 -0.31462,-7.70816 -0.31462,-7.70816 l -5.74179,-8.41605 -14.94439,-3.38215 -13.76456,1.10117 -10.46107,2.28098 -7.70816,2.67426 c 0,0 2.43829,3.46081 3.14619,3.61812 0.70789,0.15731 6.60699,3.53946 6.60699,3.53946 l 3.77542,3.93273 z"
         id="path4228" /><path
         id="path3721"
         style="opacity:1;fill:#9aa3b1;fill-opacity:1;stroke-width:4.50962;stroke-linecap:round;stroke-linejoin:round;stop-color:#000000"
         d="m -120.39161,208.06033 -14.73709,-0.18769 -0.31471,-7.23625 -21.10505,-0.30614 -0.31462,11.5143 2.50609,-0.0393 V 201.7795 h 17.6413 v 10.02575 h 2.81689 v -0.0822 h 11.73623 v 0.0822 l 2.0659,-0.0197 z"
         transform="translate(0,-6.6740693)"
         sodipodi:nodetypes="ccccccccccccccc" /><path
         id="path13321"
         style="fill:none;stroke:#11111b;stroke-width:5.29167;stroke-linecap:round;stroke-linejoin:round;stroke-dasharray:none;stroke-opacity:1"
         d="m -185.76696,194.72145 c -2.80172,0.86416 -5.89543,2.0206 -9.31209,3.52226 l 1.41077,0.10904 c 2.73085,-1.30571 5.36338,-2.51457 7.90132,-3.6313 z" /><path
         id="path13319"
         style="fill:none;stroke:#040714;stroke-width:5.29167;stroke-linecap:round;stroke-linejoin:round;stroke-dasharray:none;stroke-opacity:1"
         d="m -117.88479,204.31466 c 0,0 1.70109,-21.49479 -24.47241,-21.38577 -9.92451,0.0413 -23.85733,3.18922 -43.40976,11.79256 26.33139,-8.12163 26.85056,9.59321 26.85056,9.59321"
         sodipodi:nodetypes="cscc" /><g
         id="g2502"
         transform="matrix(1.2980141,0,0,1.2980141,-301.48624,108.47869)"
         style="fill:#0a0f1f;fill-opacity:1;stroke-width:4.07674;stroke-dasharray:none"><circle
           style="opacity:1;fill:#0a0f1f;fill-opacity:1;stroke:none;stroke-width:4.07674;stroke-linecap:round;stroke-linejoin:round;stroke-dasharray:none;stop-color:#000000"
           id="circle1748"
           cx="108.6761"
           cy="-96.662773"
           r="9.1212282"
           transform="rotate(90)" /></g><circle
         style="fill:#0a0f1f;fill-opacity:1;stroke:none;stroke-width:5.29167;stroke-linecap:round;stroke-linejoin:round;stroke-dasharray:none;stop-color:#000000"
         id="path1688"
         cx="-200.99503"
         cy="224.56339"
         r="11.839483" /><circle
         style="fill:#0a0f1f;fill-opacity:1;stroke:none;stroke-width:5.29167;stroke-linecap:round;stroke-linejoin:round;stroke-dasharray:none;stop-color:#000000"
         id="circle1742"
         cx="-200.99503"
         cy="274.52023"
         r="11.839483" /><circle
         style="fill:#0a0f1f;fill-opacity:1;stroke:none;stroke-width:5.29167;stroke-linecap:round;stroke-linejoin:round;stroke-dasharray:none;stop-color:#000000"
         id="circle1750"
         cx="249.54179"
         cy="225.97345"
         r="11.839483"
         transform="rotate(90)" /><circle
         style="fill:#0a0f1f;fill-opacity:1;stroke:none;stroke-width:5.29167;stroke-linecap:round;stroke-linejoin:round;stroke-dasharray:none;stop-color:#000000"
         id="path2558"
         cx="-200.99501"
         cy="249.54179"
         r="5.9215016" /><rect
         style="opacity:1;fill:#dde3ec;fill-opacity:1;stroke:none;stroke-width:5.29201;stroke-linecap:butt;stroke-linejoin:round;stroke-dasharray:none;stroke-opacity:1;stop-color:#000000"
         id="rect19498"
         width="25.583931"
         height="25.583931"
         x="-151.05643"
         y="276.08398"
         rx="1.0421815"
         ry="0.93402392" /><rect
         style="fill:none;stroke:#040714;stroke-width:5.12909;stroke-linecap:round;stroke-linejoin:round;stroke-dasharray:none;stroke-opacity:1;stop-color:#000000"
         id="rect5233"
         width="27.596481"
         height="27.663307"
         x="-152.19879"
         y="274.46634"
         rx="1.0421815"
         ry="0.93402392" /><g
         id="g5292"
         style="fill:#040714;fill-opacity:1;stroke:none"
         transform="matrix(0.93397465,0,0,1.0059119,-79.668111,101.49648)"><rect
           style="opacity:1;fill:#040714;fill-opacity:1;stroke:none;stroke-width:5.29167;stroke-linecap:round;stroke-linejoin:round;stroke-dasharray:none;stop-color:#000000"
           id="rect5284"
           width="5.7417898"
           height="5.7417898"
           x="-71.497086"
           y="182.83278" /><rect
           style="opacity:1;fill:#040714;fill-opacity:1;stroke:none;stroke-width:5.29167;stroke-linecap:round;stroke-linejoin:round;stroke-dasharray:none;stop-color:#000000"
           id="rect5288"
           width="5.7417898"
           height="5.7417898"
           x="-60.013508"
           y="182.83278" /></g><path
         id="rect424"
         style="opacity:1;fill:#9aa3b1;fill-opacity:1;stroke-width:4.50962;stroke-linecap:round;stroke-linejoin:round;stop-color:#000000"
         d="m -118.48424,211.80522 h -3.67833 v 7.80056 h -11.73623 v -7.80056 h -2.81689 v 3.20497 h -17.6413 v -3.20497 h -2.6634 v 71.41063 h 38.53615 z m -35.87275,5.564 h 17.6413 v 13.23072 h -17.6413 z m 20.45819,10.11876 h 11.73623 v 7.88221 h -11.73623 z m -20.45819,5.47099 h 17.6413 v 13.23071 h -17.6413 z m 20.45819,9.94357 h 11.73623 v 7.88221 h -11.73623 z m -20.45819,5.64617 h 17.6413 v 13.23072 h -17.6413 z m 20.45819,10.46913 h 11.73623 v 7.88221 h -11.73623 z m -20.45819,5.12062 h 17.6413 v 13.23071 h -17.6413 z"
         transform="translate(0,-6.6740693)" /><path
         style="color:#000000;fill:#040714;fill-opacity:1;stroke-linecap:round;stroke-linejoin:round"
         d="m -120.53042,204.3149 v 67.5946 h -35.74024 v -67.5946 h -5.29102 v 69.30749 c 0,2.10191 1.83748,3.58008 3.6875,3.58008 h 38.94727 c 1.85003,0 3.6875,-1.47817 3.6875,-3.58008 V 204.3149"
         id="rect3775"
         sodipodi:nodetypes="cccccssssc" /></g></g></svg>
